<?xml version="1.0" encoding="UTF-8"?>
<svg width="256" height="256" viewBox="0 0 256 256" xmlns="http://www.w3.org/2000/svg">
  <defs>
    <linearGradient id="g" x1="0" x2="1" y1="0" y2="1">
      <stop offset="0%" stop-color="#00A4EF" />
      <stop offset="100%" stop-color="#0066CC" />
    </linearGradient>
  </defs>
  <rect rx="36" width="256" height="256" fill="url(#g)" />
  <g transform="translate(48,48) scale(0.666)">
    <rect x="16" y="16" width="160" height="160" rx="20" fill="#ffffff" opacity="0.06"/>
    <path d="M40 72 L120 72 L120 88 L40 88 Z" fill="#fff" opacity="0.95"/>
    <path d="M40 96 L120 96 L120 112 L40 112 Z" fill="#fff" opacity="0.85"/>
    <path d="M40 120 L120 120 L120 136 L40 136 Z" fill="#fff" opacity="0.75"/>

    <g transform="translate(0, -8)">
      <rect x="-8" y="-8" width="56" height="56" rx="8" fill="#fff"/>
      <path d="M2 10 L22 10 L22 14 L6 14 L22 30 L18 34 L2 18 Z" fill="#0066CC"/>
    </g>

    <text x="92" y="176" font-family="Segoe UI, Roboto, Arial" font-size="36" fill="#fff">winget</text>
  </g>
</svg>
